<svg width="17" height="10" viewBox="0 0 17 10" fill="none" xmlns="http://www.w3.org/2000/svg">
<path d="M0.785337 0.578825C0.920253 0.443632 1.08051 0.336375 1.25693 0.263194C1.43335 0.190013 1.62247 0.152344 1.81346 0.152344C2.00446 0.152344 2.19358 0.190013 2.37 0.263194C2.54642 0.336375 2.70667 0.443632 2.84159 0.578825L8.49992 6.23716L14.1583 0.578826C14.4309 0.30615 14.8008 0.152962 15.1864 0.152962C15.572 0.152962 15.9418 0.30615 16.2145 0.578826C16.4872 0.851501 16.6404 1.22133 16.6404 1.60695C16.6404 1.99257 16.4872 2.3624 16.2145 2.63508L9.52075 9.32882C9.38584 9.46402 9.22558 9.57127 9.04916 9.64446C8.87274 9.71764 8.68362 9.7553 8.49263 9.7553C8.30163 9.7553 8.11251 9.71764 7.93609 9.64446C7.75967 9.57127 7.59942 9.46402 7.4645 9.32882L0.770753 2.63507C0.216587 2.08091 0.216587 1.14757 0.785337 0.578825Z" fill="#FAFAFA"/>
</svg>
